<svg width="33" height="36" viewBox="0 0 33 36" fill="none" xmlns="http://www.w3.org/2000/svg">
<path d="M0.796875 35.742V26.2429C0.796875 25.198 1.16875 24.3046 1.91249 23.5626C2.65624 22.8203 3.55038 22.4491 4.59491 22.4491H28.5135C29.558 22.4491 30.4521 22.821 31.1959 23.5647C31.9396 24.3085 32.3115 25.2026 32.3115 26.2471V35.742H0.796875ZM10.5543 19.5403C7.85493 19.5403 5.55383 18.5889 3.65105 16.6861C1.74827 14.7833 0.796875 12.4822 0.796875 9.78284C0.796875 7.08344 1.74827 4.78235 3.65105 2.87957C5.55383 0.976784 7.85493 0.0253906 10.5543 0.0253906H22.554C25.2535 0.0253906 27.5545 0.976784 29.4573 2.87957C31.3601 4.78235 32.3115 7.08344 32.3115 9.78284C32.3115 12.4822 31.3601 14.7833 29.4573 16.6861C27.5545 18.5889 25.2535 19.5403 22.554 19.5403H10.5543ZM3.94834 32.5905H29.16V26.2471C29.16 26.0587 29.0995 25.9038 28.9783 25.7823C28.8572 25.6611 28.7022 25.6006 28.5135 25.6006H4.59491C4.40618 25.6006 4.25123 25.6611 4.13007 25.7823C4.00892 25.9038 3.94834 26.0587 3.94834 26.2471V32.5905ZM10.5543 16.3888H22.554C24.3991 16.3888 25.9613 15.7491 27.2408 14.4696C28.5203 13.1901 29.16 11.6279 29.16 9.78284C29.16 7.93784 28.5203 6.37559 27.2408 5.09609C25.9613 3.8166 24.3991 3.17685 22.554 3.17685H10.5543C8.70932 3.17685 7.14707 3.8166 5.86758 5.09609C4.58809 6.37559 3.94834 7.93784 3.94834 9.78284C3.94834 11.6279 4.58809 13.1901 5.86758 14.4696C7.14707 15.7491 8.70932 16.3888 10.5543 16.3888ZM10.5538 11.6007C11.0685 11.6007 11.5003 11.4267 11.8491 11.0786C12.1978 10.7302 12.3722 10.2985 12.3722 9.78337C12.3722 9.26863 12.1982 8.83688 11.8501 8.48812C11.5017 8.13901 11.0699 7.96445 10.5549 7.96445C10.0401 7.96445 9.60837 8.13866 9.2596 8.48707C8.91049 8.83548 8.73594 9.26723 8.73594 9.78232C8.73594 10.2971 8.91014 10.7288 9.25855 11.0776C9.60696 11.4263 10.0387 11.6007 10.5538 11.6007ZM22.5535 11.6007C23.0683 11.6007 23.5 11.4267 23.8488 11.0786C24.1979 10.7302 24.3724 10.2985 24.3724 9.78337C24.3724 9.26863 24.1982 8.83688 23.8498 8.48812C23.5014 8.13901 23.0697 7.96445 22.5546 7.96445C22.0398 7.96445 21.6081 8.13866 21.2593 8.48707C20.9106 8.83548 20.7362 9.26723 20.7362 9.78232C20.7362 10.2971 20.9102 10.7288 21.2583 11.0776C21.6067 11.4263 22.0384 11.6007 22.5535 11.6007Z" fill="#153AAD"/>
</svg>
