<svg xmlns="http://www.w3.org/2000/svg" xmlns:xlink="http://www.w3.org/1999/xlink" width="500" zoomAndPan="magnify" viewBox="0 0 375 374.999991" height="500" preserveAspectRatio="xMidYMid meet" version="1.0"><defs><clipPath id="4fcf762a55"><path d="M 1.113281 1.113281 L 373.863281 1.113281 L 373.863281 373.863281 L 1.113281 373.863281 Z M 1.113281 1.113281 " clip-rule="nonzero"/></clipPath><clipPath id="afcd58febf"><path d="M 37.863281 1.113281 L 337.136719 1.113281 C 357.433594 1.113281 373.886719 17.566406 373.886719 37.863281 L 373.886719 337.136719 C 373.886719 357.433594 357.433594 373.886719 337.136719 373.886719 L 37.863281 373.886719 C 17.566406 373.886719 1.113281 357.433594 1.113281 337.136719 L 1.113281 37.863281 C 1.113281 17.566406 17.566406 1.113281 37.863281 1.113281 Z M 37.863281 1.113281 " clip-rule="nonzero"/></clipPath><clipPath id="b58adefa00"><path d="M 251 86 L 337.535156 86 L 337.535156 174 L 251 174 Z M 251 86 " clip-rule="nonzero"/></clipPath></defs><g clip-path="url(#4fcf762a55)"><g clip-path="url(#afcd58febf)"><path stroke-linecap="butt" transform="matrix(0.75, 0, 0, 0.75, 1.112093, 1.11208)" fill="none" stroke-linejoin="miter" d="M 49.001587 0.00160166 L 448.032863 0.00160166 C 475.095365 0.00160166 497.032867 21.939103 497.032867 49.001605 L 497.032867 448.032881 C 497.032867 475.095383 475.095365 497.032884 448.032863 497.032884 L 49.001587 497.032884 C 21.939085 497.032884 0.00158391 475.095383 0.00158391 448.032881 L 0.00158391 49.001605 C 0.00158391 21.939103 21.939085 0.00160166 49.001587 0.00160166 Z M 49.001587 0.00160166 " stroke="#0164ff" stroke-width="44" stroke-opacity="1" stroke-miterlimit="4"/></g></g><path fill="#0164ff" d="M 271.804688 194.851562 C 271.609375 194.6875 271.394531 194.550781 271.171875 194.433594 L 271.003906 194.351562 C 270.949219 194.324219 270.890625 194.296875 270.835938 194.277344 L 270.664062 194.210938 C 270.605469 194.1875 270.574219 194.179688 270.53125 194.164062 C 256.140625 189.402344 241.8125 184.4375 227.605469 179.148438 C 216.820312 175.183594 207.867188 166.558594 203.574219 155.894531 C 203.25 155.105469 202.953125 154.28125 202.671875 153.472656 C 198.996094 142.503906 194.242188 127.945312 190.578125 116.917969 C 190.171875 115.675781 188.945312 112.085938 188.5625 110.917969 C 188.5625 110.917969 188.394531 110.417969 188.394531 110.417969 C 188.027344 109.199219 187.214844 108.097656 186.085938 107.449219 C 184.277344 106.375 181.839844 106.566406 180.222656 107.917969 C 179.609375 108.421875 179.117188 109.074219 178.792969 109.796875 C 177.292969 113.539062 175.808594 117.34375 174.351562 121.097656 C 170.363281 131.425781 166.246094 142.273438 162.367188 152.636719 C 160.535156 157.519531 157.773438 162.046875 154.25 165.894531 C 150.292969 170.234375 145.390625 173.703125 139.976562 175.984375 C 138.652344 176.550781 135.597656 177.664062 134.179688 178.214844 C 122.539062 182.65625 107.386719 188.398438 95.800781 192.847656 C 92.542969 194.167969 91.570312 198.335938 93.824219 200.996094 C 94.414062 201.703125 95.230469 202.230469 96.09375 202.527344 C 110.304688 207.578125 124.804688 212.546875 139.0625 217.425781 C 141.621094 218.308594 144.105469 219.433594 146.460938 220.796875 C 153.566406 224.894531 159.402344 231.183594 162.96875 238.574219 C 163.492188 239.652344 163.972656 240.761719 164.402344 241.882812 C 169.691406 255.804688 174.871094 269.914062 179.757812 283.976562 C 179.867188 284.285156 180.023438 284.765625 180.148438 285.058594 C 181.027344 287.0625 183.476562 287.84375 185.398438 286.859375 C 186.046875 286.527344 186.59375 285.996094 186.957031 285.363281 L 187.050781 285.191406 C 187.082031 285.136719 187.109375 285.078125 187.132812 285.019531 L 187.210938 284.839844 L 187.3125 284.585938 C 192.863281 270.609375 198.671875 256.464844 204.109375 242.460938 C 205.082031 239.992188 206.277344 237.617188 207.679688 235.375 C 211.179688 229.773438 216.019531 225.019531 221.675781 221.613281 C 223.511719 220.5 225.441406 219.539062 227.421875 218.714844 C 240.914062 213.535156 254.613281 207.984375 267.988281 202.460938 L 269.941406 201.660156 L 270.429688 201.457031 L 270.671875 201.359375 C 271.273438 201.121094 271.835938 200.746094 272.257812 200.238281 C 273.609375 198.667969 273.410156 196.152344 271.804688 194.851562 Z M 271.804688 194.851562 " fill-opacity="1" fill-rule="nonzero"/><path fill="#0164ff" d="M 182.859375 74.53125 C 183.082031 74.714844 183.351562 74.851562 183.613281 74.941406 C 187.667969 76.316406 191.742188 77.636719 195.8125 78.964844 C 197.71875 79.589844 199.550781 80.445312 201.238281 81.535156 C 205.078125 83.984375 208.160156 87.617188 209.972656 91.800781 C 210.574219 93.222656 211.058594 94.695312 211.585938 96.148438 C 212.652344 99.175781 213.675781 102.222656 214.664062 105.277344 C 214.753906 105.554688 214.914062 105.816406 215.136719 106.023438 C 216.007812 106.851562 217.46875 106.613281 218.039062 105.566406 C 219.773438 101.535156 221.46875 97.480469 223.109375 93.414062 C 225.46875 87.515625 230.085938 82.597656 235.800781 79.824219 C 236.125 79.671875 236.46875 79.503906 236.804688 79.359375 C 238.988281 78.433594 243.480469 76.484375 245.730469 75.496094 L 248.589844 74.257812 C 248.703125 74.207031 248.878906 74.132812 248.984375 74.082031 C 249.964844 73.617188 250.117188 72.238281 249.265625 71.578125 C 249.121094 71.46875 248.953125 71.386719 248.78125 71.335938 C 244.703125 70.035156 240.652344 68.640625 236.644531 67.144531 C 230.386719 64.851562 225.324219 59.695312 223.085938 53.433594 C 222.917969 52.964844 222.757812 52.480469 222.613281 52.003906 C 221.359375 47.917969 220.089844 43.664062 218.703125 39.636719 C 217.738281 37.5 214.703125 37.632812 213.878906 39.800781 C 212.707031 42.722656 211.476562 45.96875 210.339844 48.914062 C 209.636719 50.71875 208.964844 52.742188 208.058594 54.449219 C 205.460938 59.476562 201.035156 63.535156 195.773438 65.625 C 192.21875 67.023438 187.09375 68.976562 183.554688 70.390625 C 183.183594 70.53125 182.855469 70.75 182.578125 71.054688 C 181.671875 72.058594 181.800781 73.695312 182.859375 74.535156 Z M 182.859375 74.53125 " fill-opacity="1" fill-rule="nonzero"/><g clip-path="url(#b58adefa00)"><path fill="#0164ff" d="M 335.769531 128.65625 C 330.605469 127.074219 325.480469 125.359375 320.421875 123.464844 C 312.628906 120.609375 306.378906 114.101562 303.742188 106.257812 C 303.296875 105.007812 302.511719 102.058594 302.109375 100.726562 C 301.003906 96.902344 299.863281 93.09375 298.644531 89.304688 C 298.605469 89.1875 298.550781 89.03125 298.492188 88.898438 C 297.050781 85.730469 292.5625 85.957031 291.371094 89.195312 C 289.359375 94.152344 287.425781 99.140625 285.523438 104.144531 C 285.105469 105.238281 284.625 106.3125 284.082031 107.351562 C 281.378906 112.570312 277.089844 116.960938 271.90625 119.742188 C 271.125 120.164062 270.324219 120.546875 269.507812 120.898438 C 268.902344 121.144531 265.757812 122.394531 265.050781 122.664062 C 262.261719 123.761719 256.261719 126.105469 253.585938 127.210938 C 252.265625 127.804688 251.429688 129.257812 251.5625 130.695312 C 251.652344 132.066406 252.628906 133.324219 253.9375 133.738281 C 259.023438 135.414062 264.136719 137.007812 269.246094 138.613281 C 271.609375 139.359375 273.894531 140.394531 275.996094 141.722656 C 280.789062 144.71875 284.644531 149.226562 286.890625 154.417969 C 287.074219 154.847656 287.261719 155.292969 287.421875 155.734375 C 289.261719 160.757812 290.945312 165.835938 292.539062 170.941406 C 292.578125 171.0625 292.636719 171.265625 292.679688 171.382812 C 293.367188 173.246094 295.847656 173.632812 297.125 172.148438 C 297.34375 171.902344 297.5 171.601562 297.625 171.304688 L 297.816406 170.855469 C 299.894531 166.09375 301.996094 161.34375 303.960938 156.539062 C 304.421875 155.429688 304.941406 154.347656 305.519531 153.296875 C 306.09375 152.25 306.722656 151.234375 307.410156 150.257812 C 310.773438 145.476562 315.433594 141.625 320.761719 139.214844 C 325.597656 137.089844 330.8125 134.671875 335.628906 132.507812 L 335.738281 132.457031 L 335.816406 132.421875 C 336.105469 132.296875 336.367188 132.101562 336.578125 131.859375 C 337.46875 130.808594 337.066406 129.121094 335.769531 128.65625 Z M 335.769531 128.65625 " fill-opacity="1" fill-rule="nonzero"/></g></svg>